<svg width="1055" height="183" viewBox="0 0 1055 183" fill="none" xmlns="http://www.w3.org/2000/svg">
<path d="M13.1358 135.384C13.1358 140.257 12.7121 142.587 8.89845 144.282C5.9323 145.341 0 145.765 0 149.367C0 151.062 1.69494 151.697 3.38989 151.697C6.5679 151.697 9.74592 150.85 18.4325 150.85C26.6953 150.85 29.2378 151.697 31.992 151.697C35.1701 151.697 36.2294 151.062 36.2294 148.731C36.2294 144.706 31.1446 145.553 26.9072 144.282C23.0936 143.223 21.1868 138.985 21.1868 127.333V46.6109C21.1868 44.7041 21.6105 44.0685 22.6699 44.0685C23.7292 44.0685 24.5767 45.5516 26.0597 48.7296C41.738 79.0267 58.2637 109.324 74.1538 139.409C75.6368 141.951 76.908 144.494 78.1792 147.248C81.5691 153.392 81.9929 154.664 88.3489 154.664C95.5524 154.664 96.188 154.028 96.188 150.638V33.687C96.188 28.1784 97.883 25.8479 101.061 25.2123C105.086 24.5767 108.688 23.9411 108.688 20.5512C108.688 18.0088 107.205 17.3732 104.875 17.3732C101.697 17.3732 98.0948 18.2206 92.7981 18.2206C85.1709 18.2206 81.1454 17.3732 78.603 17.3732C76.4843 17.3732 75.0012 18.8562 75.0012 20.9749C75.0012 23.3055 77.9674 24.5767 83.0522 25.2123C86.0183 25.636 88.137 28.1784 88.137 35.8057V100.214C88.137 101.273 87.9252 102.12 87.2896 102.12C86.4421 102.12 86.2302 101.697 84.3234 98.5186C73.0944 77.5436 55.0856 43.6448 44.916 23.9411C42.3736 19.0681 41.738 17.3732 39.1956 17.3732C35.3819 17.3732 28.3903 18.0088 23.3055 18.0088C18.2206 18.0088 12.7121 17.3732 7.62724 17.3732C4.87296 17.3732 1.48307 17.585 1.48307 21.1868C1.48307 23.9411 3.60175 24.3648 7.41538 25.0004C10.8053 25.4241 13.1358 26.9072 13.1358 31.992V135.384Z" fill="#F7F7F7"/>
<path d="M156.392 89.4082C156.392 85.8065 157.451 85.5946 163.171 85.5946C170.799 85.5946 174.188 87.7133 176.519 98.5186C177.578 104.027 178.85 105.934 181.18 105.934C183.299 105.934 184.358 104.663 184.358 101.061C184.358 95.9761 183.511 88.137 183.511 81.781C183.511 75.425 184.358 69.7045 184.358 64.4078C184.358 59.323 183.723 58.0518 181.18 58.0518C178.002 58.0518 177.79 59.9586 175.883 67.5859C174.188 74.3656 171.222 77.9674 161.476 77.9674C157.239 77.9674 156.392 77.3318 156.392 74.5775V29.2378C156.392 26.0597 158.298 25.0004 164.231 25.0004C176.307 25.0004 181.816 29.8734 187.112 42.3736C191.562 53.1788 190.714 57.6281 195.163 57.6281C197.706 57.6281 198.13 56.145 198.341 51.6958V24.5767C198.341 18.0088 197.918 17.3732 191.562 17.3732C184.146 17.3732 173.553 18.2206 154.909 18.2206C139.442 18.2206 126.942 17.3732 120.586 17.3732C116.349 17.3732 114.442 19.0681 114.442 21.3987C114.442 24.1529 116.56 24.3648 121.222 25.2123C126.306 26.4835 126.942 29.0259 126.942 35.5938V134.96C126.942 140.892 126.094 142.799 121.433 143.646C115.501 144.918 114.442 145.341 114.442 147.884C114.442 151.486 117.196 151.697 120.374 151.697C126.094 151.697 129.696 150.85 142.408 150.85C155.332 150.85 159.358 151.697 165.502 151.697C171.01 151.697 171.858 150.85 171.858 148.096C171.858 145.553 169.951 144.706 163.595 143.858C158.298 143.223 156.392 140.68 156.392 133.9V89.4082Z" fill="#F7F7F7"/>
<path d="M237.082 132.206C237.082 138.773 236.022 142.587 229.031 143.646C223.31 144.494 222.463 145.765 222.463 148.308C222.463 150.638 224.158 151.697 227.548 151.697C231.997 151.697 236.022 150.85 252.124 150.85C264.413 150.85 268.438 151.697 273.947 151.697C276.913 151.697 280.091 151.697 280.091 148.096C280.091 145.341 277.549 144.494 271.828 143.646C268.862 143.223 266.531 140.468 266.531 135.172V28.3903C266.531 26.6953 267.591 25.8479 270.981 25.8479C272.676 25.8479 274.794 26.0597 276.913 26.4835C283.905 27.331 286.447 33.4751 288.989 43.0092C290.472 49.7889 291.32 56.9925 294.922 56.9925C297.888 56.9925 299.159 54.8738 299.583 47.4584C300.007 40.4668 300.218 29.6615 300.218 22.6699C300.218 20.1274 300.218 17.7969 300.007 15.6782C300.007 12.2883 299.583 9.32218 297.04 9.32218C294.498 9.32218 292.803 12.2883 291.532 14.1951C289.201 17.1613 286.023 18.2206 277.125 18.2206H223.098C218.861 18.2206 217.59 15.8901 216.742 13.7714C215.895 11.4409 215.259 9.32218 212.293 9.32218C209.963 9.32218 209.115 12.0765 208.056 18.0088C206.573 26.4835 205.09 36.4413 204.242 44.2804C203.819 47.6703 203.607 49.7889 203.607 51.0602C203.607 54.2382 204.454 56.3569 206.997 56.3569C210.386 56.3569 212.505 50.6364 215.048 44.2804C218.437 35.8057 222.463 25.8479 231.361 25.8479C236.234 25.8479 237.082 26.9072 237.082 29.4496V132.206Z" fill="#F7F7F7"/>
<path d="M346.624 182.63C349.166 182.63 350.438 182.206 351.285 179.876L419.295 6.56789C420.142 4.66108 421.413 2.11868 421.413 1.2712C421.413 0 420.354 0 419.083 0H407.642C405.735 0 404.676 0.42373 403.828 2.75427L335.607 175.85C334.759 178.181 333.488 180.723 333.488 181.571C333.488 182.63 334.759 182.63 336.031 182.63H346.624Z" fill="#F7F7F7"/>
<path d="M405.591 182.63C408.134 182.63 409.405 182.206 410.252 179.876L478.262 6.56789C479.109 4.66108 480.381 2.11868 480.381 1.2712C480.381 0 479.321 0 478.05 0H466.609C464.702 0 463.643 0.42373 462.796 2.75427L394.574 175.85C393.727 178.181 392.455 180.723 392.455 181.571C392.455 182.63 393.727 182.63 394.998 182.63H405.591Z" fill="#F7F7F7"/>
<path d="M529.373 150.85V14.5129H582.954C596.811 14.5129 607.489 18.4537 614.989 26.3352C621.345 33.0726 624.523 41.8439 624.523 52.6492C624.523 65.3612 620.836 75.0224 613.463 81.6327C606.218 88.243 595.476 91.5481 581.238 91.5481H542.149V150.85H529.373ZM542.149 80.6793H580.285C601.133 80.6793 611.557 71.463 611.557 53.0305C611.557 44.2592 608.951 37.5218 603.739 32.8183C598.654 28.1149 591.217 25.7631 581.429 25.7631H542.149V80.6793Z" fill="#F7F7F7"/>
<path d="M638.812 150.85V52.2678H650.634V70.5732H651.016C657.753 57.8611 667.796 51.5051 681.143 51.5051C682.287 51.5051 683.368 51.6322 684.385 51.8864V63.518C676.63 62.2468 669.639 63.8358 663.41 68.285C654.893 74.641 650.634 83.4759 650.634 94.7897V150.85H638.812Z" fill="#F7F7F7"/>
<path d="M733.242 143.413C743.793 143.413 751.993 139.473 757.84 131.591C763.688 123.71 766.612 113.731 766.612 101.654C766.612 89.5777 763.688 79.5988 757.84 71.7173C751.993 63.8358 743.793 59.895 733.242 59.895C722.564 59.895 714.301 63.8358 708.454 71.7173C702.606 79.5988 699.682 89.5777 699.682 101.654C699.682 113.731 702.606 123.71 708.454 131.591C714.301 139.473 722.564 143.413 733.242 143.413ZM733.242 153.329C719.259 153.329 708.136 148.498 699.873 138.837C691.61 129.049 687.479 116.654 687.479 101.654C687.479 86.654 691.61 74.3232 699.873 64.6621C708.136 54.8738 719.259 49.9796 733.242 49.9796C747.099 49.9796 758.094 54.8738 766.23 64.6621C774.493 74.3232 778.624 86.654 778.624 101.654C778.624 116.654 774.493 129.049 766.23 138.837C758.094 148.498 747.099 153.329 733.242 153.329Z" fill="#F7F7F7"/>
<path d="M779.825 180.787V170.871H780.016C780.524 170.999 781.605 171.062 783.257 171.062C790.376 171.062 793.936 167.312 793.936 159.812V52.2678H805.758V160.384C805.758 168.011 803.978 173.35 800.419 176.401C796.859 179.452 791.647 180.978 784.783 180.978C782.113 180.978 780.461 180.914 779.825 180.787ZM793.936 31.2929V14.5129H805.758V31.2929H793.936Z" fill="#F7F7F7"/>
<path d="M866.575 153.329C852.21 153.329 840.96 148.562 832.824 139.028C824.688 129.367 820.62 116.909 820.62 101.654C820.62 86.654 824.752 74.3232 833.015 64.6621C841.278 54.8738 852.146 49.9796 865.621 49.9796C873.248 49.9796 879.859 51.4415 885.452 54.3653C891.172 57.2891 895.622 61.3569 898.8 66.5689C901.978 71.7808 904.266 77.5013 905.664 83.7302C907.19 89.832 907.952 96.5058 907.952 103.752H832.824C833.078 115.447 836.066 124.981 841.786 132.354C847.506 139.6 855.769 143.223 866.575 143.223C881.575 143.223 891.173 135.85 895.367 121.104H906.808C904.647 131.019 900.071 138.901 893.079 144.748C886.215 150.469 877.38 153.329 866.575 153.329ZM833.015 94.4083H895.558C895.304 84.1115 892.634 75.7851 887.549 69.4291C882.592 62.9459 875.282 59.7044 865.621 59.7044C856.087 59.7044 848.523 62.8824 842.93 69.2384C837.464 75.5945 834.159 83.9844 833.015 94.4083Z" fill="#F7F7F7"/>
<path d="M962.261 153.329C948.277 153.329 937.282 148.498 929.273 138.837C921.391 129.176 917.451 116.782 917.451 101.654C917.451 86.5268 921.455 74.1326 929.464 64.4714C937.472 54.8102 948.468 49.9796 962.451 49.9796C973.384 49.9796 982.282 52.8398 989.147 58.5603C996.138 64.1536 1000.46 71.9715 1002.11 82.014H990.291C987.367 67.268 978.087 59.895 962.451 59.895C951.646 59.895 943.447 63.8358 937.854 71.7173C932.387 79.4716 929.654 89.4506 929.654 101.654C929.654 113.858 932.387 123.837 937.854 131.591C943.447 139.345 951.583 143.223 962.261 143.223C970.524 143.223 977.197 140.871 982.282 136.167C987.367 131.337 990.418 124.917 991.435 116.909H1002.69C1001.54 128.222 997.41 137.121 990.291 143.604C983.172 150.087 973.829 153.329 962.261 153.329Z" fill="#F7F7F7"/>
<path d="M1043.34 151.613C1030.76 151.613 1024.46 145.702 1024.46 133.879V61.9925H1009.59V52.2678H1024.46V21.9495H1036.29V52.2678H1054.59V61.9925H1036.29V131.972C1036.29 135.405 1037.05 137.82 1038.57 139.218C1040.1 140.617 1042.51 141.316 1045.82 141.316C1048.74 141.316 1051.35 140.807 1053.64 139.79H1054.21V149.897C1051.03 151.041 1047.41 151.613 1043.34 151.613Z" fill="#F7F7F7"/>
</svg>
